<svg width="22" height="22" viewBox="0 0 22 22" fill="none" xmlns="http://www.w3.org/2000/svg">
<path opacity="0.4" d="M17.6367 5.115H17.27L14.1717 2.01667C13.9242 1.76917 13.5208 1.76917 13.2642 2.01667C13.0167 2.26417 13.0167 2.6675 13.2642 2.92417L15.455 5.115H6.54501L8.73584 2.92417C8.98334 2.67667 8.98334 2.27333 8.73584 2.01667C8.48834 1.76917 8.08501 1.76917 7.82834 2.01667L4.73918 5.115H4.37251C3.54751 5.115 1.83334 5.115 1.83334 7.46167C1.83334 8.35084 2.01668 8.9375 2.40168 9.3225C2.62168 9.55167 2.88751 9.67083 3.17168 9.735C3.43751 9.79917 3.72168 9.80833 3.99668 9.80833H18.0033C18.2875 9.80833 18.5533 9.79 18.81 9.735C19.58 9.55167 20.1667 9.00167 20.1667 7.46167C20.1667 5.115 18.4525 5.115 17.6367 5.115Z" fill="#030504"/>
<path d="M18.0125 9.80833H3.99666C3.73083 9.80833 3.43749 9.79917 3.17166 9.72583L4.32666 16.775C4.58333 18.3517 5.27083 20.1667 8.32333 20.1667H13.4658C16.555 20.1667 17.105 18.6175 17.435 16.885L18.8192 9.72583C18.5625 9.79 18.2875 9.80833 18.0125 9.80833ZM11 16.9583C8.85499 16.9583 7.10416 15.2075 7.10416 13.0625C7.10416 12.6867 7.41583 12.375 7.79166 12.375C8.16749 12.375 8.47916 12.6867 8.47916 13.0625C8.47916 14.4558 9.60666 15.5833 11 15.5833C12.3933 15.5833 13.5208 14.4558 13.5208 13.0625C13.5208 12.6867 13.8325 12.375 14.2083 12.375C14.5842 12.375 14.8958 12.6867 14.8958 13.0625C14.8958 15.2075 13.145 16.9583 11 16.9583Z" fill="#030504"/>
</svg>
