<svg width="20" height="20" viewBox="0 0 20 20" fill="none" xmlns="http://www.w3.org/2000/svg">
<path opacity="0.4" d="M18.325 5.01671C18.3417 5.21671 18.325 5.42504 18.275 5.63337L15.4667 16.9083C15.2667 17.75 14.5167 18.3334 13.65 18.3334H2.69999C1.44165 18.3334 0.550001 17.1 0.916668 15.8917L4.42499 4.61668C4.66666 3.83335 5.39167 3.30005 6.20834 3.30005H16.4583C17.2583 3.30005 17.9083 3.77504 18.1833 4.44171C18.2667 4.61671 18.3083 4.81671 18.325 5.01671Z" fill="#D04B1E"/>
<path d="M19.1583 16.35C19.2417 17.425 18.3917 18.3333 17.3167 18.3333H13.65C14.5167 18.3333 15.2667 17.75 15.4667 16.9083L18.275 5.63334C18.325 5.42501 18.3417 5.21668 18.325 5.01668L18.3333 5L19.1583 16.35Z" fill="#D04B1E"/>
<path d="M8.06665 5.9417C8.01665 5.9417 7.96666 5.93335 7.91666 5.92501C7.58332 5.84168 7.375 5.50837 7.45833 5.1667L8.32498 1.5667C8.40831 1.23336 8.74165 1.03337 9.08332 1.10837C9.41665 1.19171 9.625 1.52502 9.54167 1.86668L8.67499 5.46669C8.60833 5.75002 8.34998 5.9417 8.06665 5.9417Z" fill="#D04B1E"/>
<path d="M13.65 5.94996C13.6083 5.94996 13.5583 5.94994 13.5167 5.93327C13.1833 5.85827 12.9667 5.52493 13.0333 5.1916L13.8167 1.57496C13.8917 1.23329 14.225 1.02494 14.5583 1.09161C14.8917 1.16661 15.1083 1.49995 15.0417 1.83329L14.2583 5.44993C14.2 5.74993 13.9417 5.94996 13.65 5.94996Z" fill="#D04B1E"/>
<path d="M13.0833 10.625H6.41668C6.07501 10.625 5.79168 10.3417 5.79168 10C5.79168 9.65833 6.07501 9.375 6.41668 9.375H13.0833C13.425 9.375 13.7083 9.65833 13.7083 10C13.7083 10.3417 13.425 10.625 13.0833 10.625Z" fill="#D04B1E"/>
<path d="M12.25 13.9583H5.58334C5.24168 13.9583 4.95834 13.675 4.95834 13.3333C4.95834 12.9916 5.24168 12.7083 5.58334 12.7083H12.25C12.5917 12.7083 12.875 12.9916 12.875 13.3333C12.875 13.675 12.5917 13.9583 12.25 13.9583Z" fill="#D04B1E"/>
</svg>
