<svg width="22" height="22" viewBox="0 0 22 22" fill="none" xmlns="http://www.w3.org/2000/svg">
<path opacity="0.4" d="M15.5833 8.25004C15.5833 11.7975 12.5033 14.6667 8.70834 14.6667L7.85585 15.6934L7.35168 16.2984C6.92085 16.8117 6.09584 16.7017 5.81167 16.0875L4.58334 13.3834C2.91501 12.21 1.83334 10.3492 1.83334 8.25004C1.83334 4.70254 4.91334 1.83337 8.70834 1.83337C11.4767 1.83337 13.8692 3.36421 14.9417 5.56421C15.3542 6.38005 15.5833 7.28754 15.5833 8.25004Z" fill="white"/>
<path d="M20.1667 11.7884C20.1667 13.8875 19.085 15.7484 17.4167 16.9217L16.1883 19.6258C15.9042 20.24 15.0792 20.3592 14.6483 19.8367L13.2917 18.205C11.0733 18.205 9.09333 17.2242 7.85583 15.6934L8.70833 14.6667C12.5033 14.6667 15.5833 11.7975 15.5833 8.25004C15.5833 7.28754 15.3542 6.38004 14.9417 5.56421C17.9392 6.25171 20.1667 8.78169 20.1667 11.7884Z" fill="white"/>
<path d="M11 8.9375H6.41666C6.04082 8.9375 5.72916 8.62583 5.72916 8.25C5.72916 7.87417 6.04082 7.5625 6.41666 7.5625H11C11.3758 7.5625 11.6875 7.87417 11.6875 8.25C11.6875 8.62583 11.3758 8.9375 11 8.9375Z" fill="white"/>
</svg>
