<svg width="20" height="20" viewBox="0 0 20 20" fill="none" xmlns="http://www.w3.org/2000/svg">
<path opacity="0.4" d="M10 18.3334C14.6024 18.3334 18.3333 14.6024 18.3333 10C18.3333 5.39765 14.6024 1.66669 10 1.66669C5.39763 1.66669 1.66667 5.39765 1.66667 10C1.66667 14.6024 5.39763 18.3334 10 18.3334Z" fill="#D04B1E"/>
<path d="M13.0917 13.275C12.9833 13.275 12.875 13.25 12.775 13.1834L10.1917 11.6417C9.55 11.2584 9.075 10.4167 9.075 9.67503V6.25836C9.075 5.9167 9.35833 5.63336 9.7 5.63336C10.0417 5.63336 10.325 5.9167 10.325 6.25836V9.67503C10.325 9.97503 10.575 10.4167 10.8333 10.5667L13.4167 12.1084C13.7167 12.2834 13.8083 12.6667 13.6333 12.9667C13.5083 13.1667 13.3 13.275 13.0917 13.275Z" fill="#D04B1E"/>
</svg>
