<svg width="22" height="22" viewBox="0 0 22 22" fill="none" xmlns="http://www.w3.org/2000/svg">
<path opacity="0.4" d="M19.3233 7.86507V14.135C19.3233 15.1617 18.7733 16.1151 17.8842 16.6376L12.4392 19.7817C11.55 20.2951 10.45 20.2951 9.55168 19.7817L4.10668 16.6376C3.21751 16.1242 2.66751 15.1709 2.66751 14.135V7.86507C2.66751 6.83841 3.21751 5.88503 4.10668 5.36253L9.55168 2.21837C10.4408 1.70504 11.5408 1.70504 12.4392 2.21837L17.8842 5.36253C18.7733 5.88503 19.3233 6.82924 19.3233 7.86507Z" fill="white"/>
<path d="M11 11C12.1796 11 13.1358 10.0438 13.1358 8.86419C13.1358 7.6846 12.1796 6.72839 11 6.72839C9.82041 6.72839 8.86417 7.6846 8.86417 8.86419C8.86417 10.0438 9.82041 11 11 11Z" fill="white"/>
<path d="M13.4567 15.2717C14.1992 15.2717 14.63 14.4468 14.2175 13.8326C13.5942 12.9068 12.3842 12.2834 11 12.2834C9.61582 12.2834 8.40582 12.9068 7.78249 13.8326C7.36999 14.4468 7.80082 15.2717 8.54332 15.2717H13.4567Z" fill="white"/>
</svg>
