<svg width="22" height="22" viewBox="0 0 22 22" fill="none" xmlns="http://www.w3.org/2000/svg">
<path d="M20.1667 5.50004V7.71837C20.1667 9.16671 19.25 10.0834 17.8017 10.0834H14.6667V3.67587C14.6667 2.65837 15.5008 1.83337 16.5183 1.83337C17.5175 1.84254 18.4342 2.24587 19.0942 2.90587C19.7542 3.57504 20.1667 4.49171 20.1667 5.50004Z" fill="white"/>
<path opacity="0.4" d="M1.83333 6.41671V19.25C1.83333 20.0109 2.695 20.4417 3.3 19.9834L4.86749 18.81C5.23416 18.535 5.7475 18.5717 6.0775 18.9017L7.59916 20.4325C7.95666 20.79 8.54333 20.79 8.90083 20.4325L10.4408 18.8925C10.7617 18.5717 11.275 18.535 11.6325 18.81L13.2 19.9834C13.805 20.4325 14.6667 20.0017 14.6667 19.25V3.66671C14.6667 2.65837 15.4917 1.83337 16.5 1.83337H6.41666H5.49999C2.74999 1.83337 1.83333 3.47421 1.83333 5.50004V6.41671Z" fill="white"/>
<path d="M11 8.9375H5.5C5.12417 8.9375 4.8125 8.62583 4.8125 8.25C4.8125 7.87417 5.12417 7.5625 5.5 7.5625H11C11.3758 7.5625 11.6875 7.87417 11.6875 8.25C11.6875 8.62583 11.3758 8.9375 11 8.9375Z" fill="white"/>
<path d="M10.3125 12.6041H6.1875C5.81167 12.6041 5.5 12.2925 5.5 11.9166C5.5 11.5408 5.81167 11.2291 6.1875 11.2291H10.3125C10.6883 11.2291 11 11.5408 11 11.9166C11 12.2925 10.6883 12.6041 10.3125 12.6041Z" fill="white"/>
</svg>
